<?xml version="1.0" standalone="no"?>
<!DOCTYPE svg PUBLIC "-//W3C//DTD SVG 1.1//EN"
	"http://www.w3.org/Graphics/SVG/1.1/DTD/svg11.dtd">
<svg xmlns="http://www.w3.org/2000/svg" version="1.1"
	xmlns:xlink="http://www.w3.org/1999/xlink"
	color="black"
	width="797.58px" height="299.56px">
<style type="text/css">
.fill {fill: currentColor}
.stroke {stroke: currentColor; fill: none}
text{white-space:pre; fill:currentColor}
</style>
<title>./ldmt-3-2-8-5-9-1-8-7-9-2-2-5-6-5-1-7.abc (1504) tune 1</title>
<!-- Creator: abcm2ps-8.14.15 -->
<!-- CreationDate: May 12, 2025 12:56 -->
<!-- CommandLine: ./ldmt-3-2-8-5-9-1-8-7-9-2-2-5-6-5-1-7.abc -O ./ldmt-3-2-8-5-9-1-8-7-9-2-2-5-6-5-1-7.svg -g -->
<rect width="100%" height="100%" fill="white"/>
<g stroke-width="0.70" transform="scale(0.867)">
<!-- title: 3-2-8-5-9-1-8-7-9-2-2-5-6-5-1-7 -->
</g>
<g stroke-width="0.70" transform="scale(0.867)" style="font:20.00px Times">
<text x="460.19" y="22.00" text-anchor="middle">3-2-8-5-9-1-8-7-9-2-2-5-6-5-1-7</text>
</g>
<g stroke-width="0.70" transform="scale(0.867)" style="font:20.00px Times">
<!-- subtitle: $1ldmt::17:10:59:12:69:6:63:16::65:10:11:36:45:38:7:16::$0 -->
</g>
<g stroke-width="0.70" transform="scale(0.867)" style="font:bold 12.00px Courier">
<text x="460.19" y="41.80" text-anchor="middle">ldmt::17:10:59:12:69:6:63:16::65:10:11:36:45:38:7:16::</text>
</g>
<g stroke-width="0.70" transform="scale(0.867)" style="font:bold 12.00px Courier">
<!-- subtitle: $1Perm. No.: 150439849716558$0 -->
<text x="460.19" y="60.80" text-anchor="middle">Perm. No.: 150439849716558</text>
</g>
<g stroke-width="0.70" transform="scale(0.607)" style="font:bold 12.00px Courier">
<defs>
<ellipse id="hd" rx="4.1" ry="2.9"
	transform="rotate(-20)" class="fill"/>
</defs>
<use x="145.70" y="121.29" xlink:href="#hd"/>
<path d="M149.20 121.29v-21.00" class="stroke"/>
<path class="fill"
	d="M149.20 100.29c0.6 5.6 9.6 9 5.6 18.4
	1.6 -6 -1.3 -11.6 -5.6 -12.8
"/>
</g>
<g stroke-width="0.70" transform="scale(0.867)" style="font:bold 15.00px Times">
<text x="111.09" y="87.00">= 120</text>
<path class="stroke" stroke-width="1"
	d="M34.89 191.00v-82.00"/>
<path class="fill"
	d="M29.89 106.00
	c10.5 1 12 -4.5 12 -3.5c0 1 -3.5 5.5 -8.5 5.5
	v84.00
	c5 0 8.5 4.5 8.5 5.5c0 1 -1.5 -4.5 -12 -3.5"/>
<path class="stroke" stroke-width="1"
	d="M177.79 133.00v-24.00"/>
<path class="stroke" stroke-width="1"
	d="M177.79 191.00v-58.00"/>
<path class="stroke" stroke-width="1"
	d="M262.39 133.00v-24.00"/>
<path class="stroke" stroke-width="1"
	d="M262.39 191.00v-58.00"/>
<path class="stroke" stroke-width="1"
	d="M390.69 133.00v-24.00"/>
<path class="stroke" stroke-width="1"
	d="M390.69 191.00v-58.00"/>
<path class="stroke" stroke-width="1"
	d="M474.89 133.00v-24.00"/>
<path class="stroke" stroke-width="1"
	d="M474.89 191.00v-58.00"/>
<path class="stroke" stroke-width="1"
	d="M611.19 133.00v-24.00"/>
<path class="stroke" stroke-width="1"
	d="M611.19 191.00v-58.00"/>
<path class="stroke" stroke-width="1"
	d="M704.89 133.00v-24.00"/>
<path class="stroke" stroke-width="1"
	d="M704.89 191.00v-58.00"/>
<path class="stroke" stroke-width="1"
	d="M807.99 133.00v-24.00"/>
<path class="stroke" stroke-width="1"
	d="M807.99 191.00v-58.00"/>
<path class="stroke" stroke-width="3"
	d="M883.89 133.00v-24.00"/>
<path class="stroke" stroke-width="1"
	d="M878.39 133.00v-24.00"/>
<defs>
<g id="rdots" class="fill">
	<circle cx="0" cy="-9" r="1.2"/>
	<circle cx="0" cy="-15" r="1.2"/>
</g>
</defs>
<use x="874.39" y="133.00" xlink:href="#rdots"/>
<path class="stroke" stroke-width="3"
	d="M883.89 191.00v-58.00"/>
<path class="stroke" stroke-width="1"
	d="M878.39 191.00v-58.00"/>
<use x="874.39" y="191.00" xlink:href="#rdots"/>
<path d="m34.89 133.00
	h850.50
	M34.89 127.00
	h850.50
	M34.89 121.00
	h850.50
	M34.89 115.00
	h850.50
	M34.89 109.00
	h850.50
	" class="stroke"/>
<path d="m34.89 191.00
	h850.50
	M34.89 185.00
	h850.50
	M34.89 179.00
	h850.50
	M34.89 173.00
	h850.50
	M34.89 167.00
	h850.50
	" class="stroke"/>
<text style="font:italic 12px serif"
	x="312.49" y="142.00" text-anchor="middle">3</text>
<text style="font:italic 12px serif"
	x="362.69" y="147.00" text-anchor="middle">3</text>
<text style="font:italic 12px serif"
	x="736.29" y="138.70" text-anchor="middle">3</text>
<defs>
<path id="utclef" class="fill" d="m-50 -90
	c-72 -41 -72 -158 52 -188
	150 -10 220 188 90 256
	-114 52 -275 0 -293 -136
	-15 -181 93 -229 220 -334
	88 -87 79 -133 62 -210
	-51 33 -94 105 -89 186
	17 267 36 374 49 574
	6 96 -19 134 -77 135
	-80 1 -126 -93 -61 -133
	85 -41 133 101 31 105
	23 17 92 37 90 -92
	-10 -223 -39 -342 -50 -617
	0 -90 0 -162 96 -232
	56 72 63 230 22 289
	-74 106 -257 168 -255 316
	9 153 148 185 252 133
	86 -65 29 -192 -80 -176
	-71 12 -105 67 -59 124"/>
<use id="tclef" transform="translate(0,6) scale(0.045)"
	xlink:href="#utclef"/>
</defs>
<use x="46.89" y="127.00" xlink:href="#tclef"/>
<defs>
<path id="usharp" class="fill" d="
	m136 -702
	v890
	h32
	v-890
	m128 840
	h32
	v-888
	h-32
	m-232 286
	v116
	l338 -96
	v-116
	m-338 442
	v116
	l338 -98
	v-114"/>
<use id="sh0" transform="translate(-4,5) scale(0.018)"
	xlink:href="#usharp"/>
</defs>
<use x="61.89" y="109.00" xlink:href="#sh0"/>
<use x="67.39" y="118.00" xlink:href="#sh0"/>
<g style="font:bold 16px serif"
	transform="translate(83.39,132.50) scale(1.2,1)">
	<text text-anchor="middle">4</text>
	<text y="-12" text-anchor="middle">3</text>
</g>
<path class="fill"
	d="M104.59 94.50l65.40 6.80v3.20l-65.40 -6.80"/>
<use x="101.39" y="136.00" xlink:href="#hd"/>
<path d="M104.89 136.00v-40.40" class="stroke"/>
<use x="113.09" y="115.00" xlink:href="#hd"/>
<path d="M116.59 115.00v-18.20" class="stroke"/>
<use x="124.79" y="124.00" xlink:href="#hd"/>
<path d="M128.29 124.00v-26.00" class="stroke"/>
<use x="142.79" y="130.00" xlink:href="#hd"/>
<use x="133.79" y="130.00" xlink:href="#sh0"/>
<path d="M146.29 130.00v-30.10" class="stroke"/>
<use x="154.39" y="136.00" xlink:href="#hd"/>
<path d="M157.89 136.00v-34.90" class="stroke"/>
<defs>
<path id="hl" class="stroke" d="m-6 0h12"/>
</defs>
<use x="166.09" y="139.00" xlink:href="#hl"/>
<use x="166.09" y="145.00" xlink:href="#hl"/>
<use x="166.09" y="145.00" xlink:href="#hd"/>
<path d="M169.59 145.00v-42.70" class="stroke"/>
<path class="fill"
	d="M193.49 131.50l18.70 5.80v-3.20l-18.70 -5.80"/>
<use x="197.29" y="103.00" xlink:href="#hl"/>
<use x="197.29" y="103.00" xlink:href="#hd"/>
<defs>
<path id="unat" class="fill" d="
	m96 -750
	h-32
	v716
	l32 -8
	182 -54
	v282
	h32
	v-706
	l-34 10
	-180 50
	v-290
	m0 592
	v-190
	l182 -52
	v188"/>
<use id="nt0" transform="translate(-3,5) scale(0.018)"
	xlink:href="#unat"/>
</defs>
<use x="188.29" y="103.00" xlink:href="#nt0"/>
<path d="M193.79 103.00v27.60" class="stroke"/>
<use x="215.29" y="118.00" xlink:href="#hd"/>
<use x="206.29" y="118.00" xlink:href="#sh0"/>
<path d="M211.79 118.00v18.20" class="stroke"/>
<defs>
<path id="Hd" class="fill" d="m3 -1.6
	c-1 -1.8 -7 1.4 -6 3.2
	1 1.8 7 -1.4 6 -3.2
	m0.5 -0.3
	c2 3.8 -5 7.6 -7 3.8
	-2 -3.8 5 -7.6 7 -3.8"/>
</defs>
<use x="227.99" y="115.00" xlink:href="#Hd"/>
<path d="M224.49 115.00v21.00" class="stroke"/>
<use x="275.89" y="103.00" xlink:href="#hl"/>
<use x="275.89" y="103.00" xlink:href="#hd"/>
<path d="M272.39 103.00v21.00" class="stroke"/>
<path class="fill"
	d="M292.89 127.20l36.70 0.00v-3.20l-36.70 -0.00"/>
<use x="296.79" y="106.00" xlink:href="#hd"/>
<path d="M293.29 106.00v20.20" class="stroke"/>
<use x="314.79" y="103.00" xlink:href="#hl"/>
<use x="314.79" y="103.00" xlink:href="#hd"/>
<use x="305.79" y="103.00" xlink:href="#nt0"/>
<path d="M311.29 103.00v23.20" class="stroke"/>
<use x="332.79" y="109.00" xlink:href="#hd"/>
<use x="323.79" y="109.00" xlink:href="#sh0"/>
<path d="M329.29 109.00v17.20" class="stroke"/>
<path class="fill"
	d="M346.89 133.20l29.10 0.00v-3.20l-29.10 -0.00"/>
<use x="350.79" y="112.00" xlink:href="#hd"/>
<use x="341.79" y="112.00" xlink:href="#nt0"/>
<path d="M347.29 112.00v20.20" class="stroke"/>
<use x="368.79" y="109.00" xlink:href="#hd"/>
<use x="359.79" y="109.00" xlink:href="#sh0"/>
<path d="M365.29 109.00v23.20" class="stroke"/>
<use x="379.19" y="115.00" xlink:href="#hd"/>
<path d="M375.69 115.00v17.20" class="stroke"/>
<use x="410.19" y="118.00" xlink:href="#hd"/>
<use x="401.19" y="118.00" xlink:href="#sh0"/>
<path d="M406.69 118.00v21.00" class="stroke"/>
<path class="fill"
	d="M427.19 141.70l18.70 -2.30v-3.20l-18.70 2.30"/>
<use x="430.99" y="121.00" xlink:href="#hd"/>
<use x="421.99" y="121.00" xlink:href="#nt0"/>
<path d="M427.49 121.00v19.60" class="stroke"/>
<use x="448.99" y="118.00" xlink:href="#hd"/>
<use x="439.99" y="118.00" xlink:href="#sh0"/>
<path d="M445.49 118.00v20.40" class="stroke"/>
<use x="461.39" y="124.00" xlink:href="#hd"/>
<path d="M464.89 124.00v-21.00" class="stroke"/>
<use x="495.39" y="121.00" xlink:href="#Hd"/>
<use x="485.39" y="121.00" xlink:href="#nt0"/>
<path d="M498.89 121.00v-21.00" class="stroke"/>
<path class="fill"
	d="M557.69 127.70l38.70 4.60v-3.20l-38.70 -4.60"/>
<use x="561.49" y="106.00" xlink:href="#hd"/>
<path d="M557.99 106.00v20.70" class="stroke"/>
<defs>
<path id="ghd" class="fill" d="m2.2 -1.5
	c-1.32 -2.31 -5.94 0.33 -4.62 2.64
	1.32 2.31 5.94 -0.33 4.62 -2.64"/>
</defs>
<use x="579.49" y="109.00" xlink:href="#ghd"/>
</g>
<g stroke-width="0.70" transform="scale(0.694)" style="font:bold 15.00px Times">
<use x="715.61" y="136.25" xlink:href="#sh0"/>
</g>
<g stroke-width="0.70" transform="scale(0.867)" style="font:bold 15.00px Times">
<path d="M581.79 109.00v-15.00" class="stroke"/>
<path class="fill"
	d="M581.79 94.00c0.6 3.4 5.6 3.8 3 10
	1.2 -4.4 -1.4 -7 -3 -7
"/>
<path class="stroke"
	d="M579.49 114.00c3.00 3.60 12.00 5.40 15.00 3.00"/>
<use x="599.49" y="112.00" xlink:href="#hd"/>
<use x="590.49" y="112.00" xlink:href="#nt0"/>
<path d="M595.99 112.00v19.30" class="stroke"/>
<path class="fill"
	d="M626.89 146.10l36.70 6.10v-3.20l-36.70 -6.10"/>
<use x="630.69" y="118.00" xlink:href="#hd"/>
<use x="621.69" y="118.00" xlink:href="#sh0"/>
<path d="M627.19 118.00v27.20" class="stroke"/>
<use x="648.69" y="103.00" xlink:href="#hl"/>
<use x="648.69" y="103.00" xlink:href="#hd"/>
<use x="639.69" y="103.00" xlink:href="#nt0"/>
<path d="M645.19 103.00v45.20" class="stroke"/>
<use x="666.69" y="133.00" xlink:href="#hd"/>
<use x="657.69" y="133.00" xlink:href="#nt0"/>
<path d="M663.19 133.00v18.20" class="stroke"/>
<use x="678.99" y="106.00" xlink:href="#hd"/>
<path d="M675.49 106.00v21.00" class="stroke"/>
<path class="fill"
	d="M675.49 127.00c0.6 -5.6 9.6 -9 5.6 -18.4
	1.6 6 -1.3 11.6 -5.6 12.8
"/>
<use x="691.29" y="115.00" xlink:href="#hd"/>
<path d="M687.79 115.00v21.00" class="stroke"/>
<path class="fill"
	d="M720.59 121.70l29.10 4.20v-3.20l-29.10 -4.20"/>
<use x="724.39" y="103.00" xlink:href="#hl"/>
<use x="724.39" y="100.00" xlink:href="#hd"/>
<use x="715.39" y="100.00" xlink:href="#nt0"/>
<path d="M720.89 100.00v20.70" class="stroke"/>
<use x="742.39" y="103.00" xlink:href="#hl"/>
<use x="742.39" y="103.00" xlink:href="#hd"/>
<use x="733.39" y="103.00" xlink:href="#nt0"/>
<path d="M738.89 103.00v20.40" class="stroke"/>
<use x="752.79" y="106.00" xlink:href="#hd"/>
<path d="M749.29 106.00v18.90" class="stroke"/>
<use x="763.69" y="106.00" xlink:href="#hd"/>
<path d="M760.19 106.00v21.00" class="stroke"/>
<path class="fill"
	d="M780.69 131.40l12.40 3.10v-3.20l-12.40 -3.10"/>
<use x="784.59" y="109.00" xlink:href="#hd"/>
<use x="775.59" y="109.00" xlink:href="#sh0"/>
<path d="M781.09 109.00v21.50" class="stroke"/>
<use x="796.29" y="115.00" xlink:href="#hd"/>
<path d="M792.79 115.00v18.50" class="stroke"/>
<use x="821.99" y="112.00" xlink:href="#Hd"/>
<circle class="fill" cx="830.69" cy="112.00" r="1.2"/>
<path d="M818.49 112.00v21.00" class="stroke"/>
<defs>
<path id="ubclef" class="fill" d="m-200 -87
	c124 -35 222 -78 254 -236
	43 -228 -167 -246 -192 -103
	59 -80 157 22 92 78
	-62 47 -115 -22 -106 -88
	21 -141 270 -136 274 52
	-1 175 -106 264 -322 297
	m357 -250
	c0 -36 51 -34 51 0
	0 37 -51 36 -51 0
	m-2 -129
	c0 -36 51 -34 51 0
	0 38 -51 37 -51 0"/>
<use id="bclef" transform="translate(0,18) scale(0.045)"
	xlink:href="#ubclef"/>
</defs>
<use x="46.89" y="173.00" xlink:href="#bclef"/>
<use x="61.89" y="173.00" xlink:href="#sh0"/>
<use x="67.39" y="182.00" xlink:href="#sh0"/>
<g style="font:bold 16px serif"
	transform="translate(83.39,190.50) scale(1.2,1)">
	<text text-anchor="middle">4</text>
	<text y="-12" text-anchor="middle">3</text>
</g>
<use x="101.39" y="179.00" xlink:href="#hd"/>
<path d="M97.89 179.00v21.00" class="stroke"/>
<use x="124.79" y="173.00" xlink:href="#hd"/>
<use x="115.79" y="173.00" xlink:href="#sh0"/>
<path d="M121.29 173.00v21.00" class="stroke"/>
<use x="154.39" y="179.00" xlink:href="#hd"/>
<path d="M150.89 179.00v21.00" class="stroke"/>
<use x="197.29" y="179.00" xlink:href="#hd"/>
<path d="M193.79 179.00v21.00" class="stroke"/>
<use x="227.99" y="176.00" xlink:href="#hd"/>
<use x="218.99" y="176.00" xlink:href="#nt0"/>
<path d="M224.49 176.00v21.00" class="stroke"/>
<use x="248.79" y="173.00" xlink:href="#hd"/>
<use x="239.79" y="173.00" xlink:href="#sh0"/>
<path d="M245.29 173.00v21.00" class="stroke"/>
<use x="275.89" y="179.00" xlink:href="#hd"/>
<path d="M272.39 179.00v21.00" class="stroke"/>
<use x="296.79" y="176.00" xlink:href="#hd"/>
<use x="287.79" y="176.00" xlink:href="#nt0"/>
<path d="M293.29 176.00v21.00" class="stroke"/>
<use x="350.79" y="170.00" xlink:href="#hd"/>
<path d="M347.29 170.00v21.00" class="stroke"/>
<use x="410.19" y="167.00" xlink:href="#hd"/>
<path d="M406.69 167.00v21.00" class="stroke"/>
<use x="430.99" y="170.00" xlink:href="#hd"/>
<path d="M427.49 170.00v21.00" class="stroke"/>
<use x="461.39" y="173.00" xlink:href="#hd"/>
<use x="452.39" y="173.00" xlink:href="#sh0"/>
<path d="M457.89 173.00v21.00" class="stroke"/>
<defs>
<path id="r8e" class="fill" d="m 0 0
	c-1.5 1.5 -2.4 2 -3.6 2
	2.4 -2.8 -2.8 -4 -2.8 -1.2
	c0 2.7 4.3 2.4 5.9 0.6"/>
<g id="r8">
	<path d="m3.3 -4l-3.4 9.6" class="stroke"/>
	<use x="3.4" y="-4" xlink:href="#r8e"/>
</g>
</defs>
<use x="495.39" y="179.00" xlink:href="#r8"/>
<path class="fill"
	d="M509.79 188.30l30.40 3.90v-3.20l-30.40 -3.90"/>
<use x="513.59" y="164.00" xlink:href="#hd"/>
<use x="504.59" y="164.00" xlink:href="#nt0"/>
<path d="M510.09 164.00v23.40" class="stroke"/>
<use x="525.29" y="170.00" xlink:href="#hd"/>
<path d="M521.79 170.00v18.90" class="stroke"/>
<use x="543.29" y="173.00" xlink:href="#hd"/>
<use x="534.29" y="173.00" xlink:href="#sh0"/>
<path d="M539.79 173.00v18.20" class="stroke"/>
<use x="561.49" y="176.00" xlink:href="#hd"/>
<use x="552.49" y="176.00" xlink:href="#nt0"/>
<path d="M557.99 176.00v21.00" class="stroke"/>
<use x="630.69" y="188.00" xlink:href="#hd"/>
<path d="M634.19 188.00v-21.00" class="stroke"/>
<use x="666.69" y="182.00" xlink:href="#hd"/>
<use x="657.69" y="182.00" xlink:href="#sh0"/>
<path d="M670.19 182.00v-21.00" class="stroke"/>
<use x="691.29" y="179.00" xlink:href="#hd"/>
<path d="M694.79 179.00v-21.00" class="stroke"/>
<use x="724.39" y="170.00" xlink:href="#hd"/>
<path d="M720.89 170.00v21.00" class="stroke"/>
<use x="763.69" y="176.00" xlink:href="#hd"/>
<use x="754.69" y="176.00" xlink:href="#nt0"/>
<path d="M760.19 176.00v21.00" class="stroke"/>
<use x="784.59" y="179.00" xlink:href="#hd"/>
<path d="M781.09 179.00v21.00" class="stroke"/>
<use x="821.99" y="167.00" xlink:href="#hd"/>
<path d="M818.49 167.00v21.00" class="stroke"/>
<use x="842.79" y="176.00" xlink:href="#hd"/>
<use x="833.79" y="176.00" xlink:href="#nt0"/>
<path d="M839.29 176.00v21.00" class="stroke"/>
<use x="856.89" y="188.00" xlink:href="#hd"/>
<path d="M860.39 188.00v-21.00" class="stroke"/>
</g>
<g stroke-width="0.70" transform="scale(0.867)" style="font:bold 15.00px Times">
<path class="stroke" stroke-width="1"
	d="M34.89 322.60v-82.00"/>
<path class="fill"
	d="M29.89 237.60
	c10.5 1 12 -4.5 12 -3.5c0 1 -3.5 5.5 -8.5 5.5
	v84.00
	c5 0 8.5 4.5 8.5 5.5c0 1 -1.5 -4.5 -12 -3.5"/>
<use x="91.89" y="264.60" xlink:href="#rdots"/>
<path class="stroke" stroke-width="1"
	d="M86.89 264.60v-24.00"/>
<path class="stroke" stroke-width="3"
	d="M82.39 264.60v-24.00"/>
<use x="91.89" y="322.60" xlink:href="#rdots"/>
<path class="stroke" stroke-width="1"
	d="M86.89 322.60v-58.00"/>
<path class="stroke" stroke-width="3"
	d="M82.39 322.60v-58.00"/>
<path class="stroke" stroke-width="1"
	d="M190.29 264.60v-24.00"/>
<path class="stroke" stroke-width="1"
	d="M190.29 322.60v-58.00"/>
<path class="stroke" stroke-width="1"
	d="M280.89 264.60v-24.00"/>
<path class="stroke" stroke-width="1"
	d="M280.89 322.60v-58.00"/>
<path class="stroke" stroke-width="1"
	d="M390.79 264.60v-24.00"/>
<path class="stroke" stroke-width="1"
	d="M390.79 322.60v-58.00"/>
<path class="stroke" stroke-width="1"
	d="M477.19 264.60v-24.00"/>
<path class="stroke" stroke-width="1"
	d="M477.19 322.60v-58.00"/>
<path class="stroke" stroke-width="1"
	d="M588.19 264.60v-24.00"/>
<path class="stroke" stroke-width="1"
	d="M588.19 322.60v-58.00"/>
<path class="stroke" stroke-width="1"
	d="M674.59 264.60v-24.00"/>
<path class="stroke" stroke-width="1"
	d="M674.59 322.60v-58.00"/>
<path class="stroke" stroke-width="1"
	d="M784.49 264.60v-24.00"/>
<path class="stroke" stroke-width="1"
	d="M784.49 322.60v-58.00"/>
<path class="stroke" stroke-width="3"
	d="M883.89 264.60v-24.00"/>
<path class="stroke" stroke-width="1"
	d="M878.39 264.60v-24.00"/>
<use x="874.39" y="264.60" xlink:href="#rdots"/>
<path class="stroke" stroke-width="3"
	d="M883.89 322.60v-58.00"/>
<path class="stroke" stroke-width="1"
	d="M878.39 322.60v-58.00"/>
<use x="874.39" y="322.60" xlink:href="#rdots"/>
<path d="m34.89 264.60
	h850.50
	M34.89 258.60
	h850.50
	M34.89 252.60
	h850.50
	M34.89 246.60
	h850.50
	M34.89 240.60
	h850.50
	" class="stroke"/>
<path d="m34.89 322.60
	h850.50
	M34.89 316.60
	h850.50
	M34.89 310.60
	h850.50
	M34.89 304.60
	h850.50
	M34.89 298.60
	h850.50
	" class="stroke"/>
<text style="font:italic 12px serif"
	x="226.39" y="222.00" text-anchor="middle">3</text>
<use x="46.89" y="258.60" xlink:href="#tclef"/>
<use x="61.89" y="240.60" xlink:href="#sh0"/>
<use x="67.39" y="249.60" xlink:href="#sh0"/>
<path class="fill"
	d="M101.59 274.80l73.80 0.00v-3.20l-73.80 -0.00"/>
<use x="105.39" y="255.60" xlink:href="#hd"/>
<path d="M101.89 255.60v18.20" class="stroke"/>
<use x="117.79" y="246.60" xlink:href="#hd"/>
<path d="M114.29 246.60v27.20" class="stroke"/>
<use x="130.19" y="246.60" xlink:href="#hd"/>
<path d="M126.69 246.60v27.20" class="stroke"/>
<use x="148.19" y="240.60" xlink:href="#hd"/>
<use x="139.19" y="240.60" xlink:href="#sh0"/>
<path d="M144.69 240.60v33.20" class="stroke"/>
<use x="166.19" y="240.60" xlink:href="#hd"/>
<use x="157.19" y="240.60" xlink:href="#sh0"/>
<path d="M162.69 240.60v33.20" class="stroke"/>
<use x="178.59" y="255.60" xlink:href="#hd"/>
<path d="M175.09 255.60v18.20" class="stroke"/>
<path class="fill"
	d="M212.89 225.80l29.40 4.50v3.20l-29.40 -4.50"/>
<use x="209.79" y="252.60" xlink:href="#hd"/>
<use x="200.79" y="252.60" xlink:href="#nt0"/>
<path d="M213.29 252.60v-25.80" class="stroke"/>
<use x="220.49" y="246.60" xlink:href="#hd"/>
<path d="M223.99 246.60v-18.20" class="stroke"/>
<use x="238.49" y="261.60" xlink:href="#hd"/>
<use x="229.49" y="261.60" xlink:href="#sh0"/>
<path d="M241.99 261.60v-30.50" class="stroke"/>
<use x="250.19" y="258.60" xlink:href="#Hd"/>
<path d="M253.69 258.60v-21.00" class="stroke"/>
<path class="fill"
	d="M296.49 271.80l79.50 0.00v-3.20l-79.50 -0.00"/>
<use x="300.39" y="252.60" xlink:href="#hd"/>
<use x="291.39" y="252.60" xlink:href="#nt0"/>
<path d="M296.89 252.60v18.20" class="stroke"/>
<use x="318.39" y="243.60" xlink:href="#hd"/>
<use x="309.39" y="243.60" xlink:href="#nt0"/>
<path d="M314.89 243.60v27.20" class="stroke"/>
<use x="336.39" y="243.60" xlink:href="#hd"/>
<use x="327.39" y="243.60" xlink:href="#nt0"/>
<path d="M332.89 243.60v27.20" class="stroke"/>
<use x="348.69" y="237.60" xlink:href="#hd"/>
<path d="M345.19 237.60v33.20" class="stroke"/>
<use x="361.09" y="237.60" xlink:href="#hd"/>
<path d="M357.59 237.60v33.20" class="stroke"/>
<use x="379.09" y="252.60" xlink:href="#hd"/>
<use x="370.09" y="252.60" xlink:href="#nt0"/>
<path d="M375.59 252.60v18.20" class="stroke"/>
<use x="410.29" y="243.60" xlink:href="#hd"/>
<use x="401.29" y="243.60" xlink:href="#nt0"/>
<path d="M406.79 243.60v21.00" class="stroke"/>
<path class="fill"
	d="M435.09 230.40l18.70 4.70v3.20l-18.70 -4.70"/>
<use x="431.89" y="249.60" xlink:href="#hd"/>
<use x="422.89" y="249.60" xlink:href="#sh0"/>
<path d="M435.39 249.60v-18.20" class="stroke"/>
<use x="449.89" y="258.60" xlink:href="#hd"/>
<use x="440.89" y="258.60" xlink:href="#sh0"/>
<path d="M453.39 258.60v-22.70" class="stroke"/>
<use x="463.09" y="255.60" xlink:href="#hd"/>
<path d="M466.59 255.60v-21.00" class="stroke"/>
<use x="496.69" y="252.60" xlink:href="#hd"/>
<use x="487.69" y="252.60" xlink:href="#nt0"/>
<path d="M500.19 252.60v-21.00" class="stroke"/>
<use x="528.09" y="237.60" xlink:href="#Hd"/>
<path d="M524.59 237.60v21.00" class="stroke"/>
<use x="607.69" y="249.60" xlink:href="#hd"/>
<use x="598.69" y="249.60" xlink:href="#sh0"/>
<path d="M604.19 249.60v21.00" class="stroke"/>
<path class="fill"
	d="M625.39 273.30l18.70 -2.30v-3.20l-18.70 2.30"/>
<use x="629.29" y="252.60" xlink:href="#hd"/>
<use x="620.29" y="252.60" xlink:href="#nt0"/>
<path d="M625.79 252.60v19.60" class="stroke"/>
<use x="647.29" y="249.60" xlink:href="#hd"/>
<use x="638.29" y="249.60" xlink:href="#sh0"/>
<path d="M643.79 249.60v20.40" class="stroke"/>
<use x="660.49" y="246.60" xlink:href="#hd"/>
<path d="M656.99 246.60v21.00" class="stroke"/>
<path class="fill"
	d="M690.19 260.80l79.50 8.10v-3.20l-79.50 -8.10"/>
<use x="694.09" y="234.60" xlink:href="#hl"/>
<use x="694.09" y="231.60" xlink:href="#hd"/>
<use x="685.09" y="231.60" xlink:href="#nt0"/>
<path d="M690.59 231.60v28.20" class="stroke"/>
<use x="706.39" y="237.60" xlink:href="#hd"/>
<path d="M702.89 237.60v23.40" class="stroke"/>
<use x="724.39" y="240.60" xlink:href="#hd"/>
<use x="715.39" y="240.60" xlink:href="#sh0"/>
<path d="M720.89 240.60v22.30" class="stroke"/>
<use x="742.39" y="243.60" xlink:href="#hd"/>
<use x="733.39" y="243.60" xlink:href="#nt0"/>
<path d="M738.89 243.60v21.10" class="stroke"/>
<use x="754.79" y="246.60" xlink:href="#hd"/>
<path d="M751.29 246.60v19.40" class="stroke"/>
<use x="772.79" y="249.60" xlink:href="#hd"/>
<use x="763.79" y="249.60" xlink:href="#sh0"/>
<path d="M769.29 249.60v18.20" class="stroke"/>
<use x="798.49" y="267.60" xlink:href="#Hd"/>
<circle class="fill" cx="807.19" cy="267.60" r="1.2"/>
<path d="M801.99 267.60v-21.00" class="stroke"/>
<use x="46.89" y="304.60" xlink:href="#bclef"/>
<use x="61.89" y="304.60" xlink:href="#sh0"/>
<use x="67.39" y="313.60" xlink:href="#sh0"/>
<use x="105.39" y="310.60" xlink:href="#hd"/>
<path d="M108.89 310.60v-21.00" class="stroke"/>
<use x="130.19" y="304.60" xlink:href="#hd"/>
<use x="121.19" y="304.60" xlink:href="#sh0"/>
<path d="M126.69 304.60v21.00" class="stroke"/>
<use x="166.19" y="310.60" xlink:href="#hd"/>
<path d="M162.69 310.60v21.00" class="stroke"/>
<use x="209.79" y="301.60" xlink:href="#hd"/>
<path d="M206.29 301.60v21.00" class="stroke"/>
<use x="250.19" y="310.60" xlink:href="#hd"/>
<path d="M246.69 310.60v21.00" class="stroke"/>
<use x="266.79" y="322.60" xlink:href="#hd"/>
<path d="M270.29 322.60v-21.00" class="stroke"/>
<use x="300.39" y="307.60" xlink:href="#hd"/>
<use x="291.39" y="307.60" xlink:href="#nt0"/>
<path d="M296.89 307.60v21.00" class="stroke"/>
<defs>
<path id="r4" class="fill" d="m-1 -8.5
	l3.6 5.1 -2.1 5.2 2.2 4.3
	c-2.6 -2.3 -5.1 0 -2.4 2.6
	-4.8 -3 -1.5 -6.9 1.4 -4.1
	l-3.1 -4.5 1.9 -5.1 -1.5 -3.5"/>
</defs>
<use x="336.39" y="310.60" xlink:href="#r4"/>
<use x="361.09" y="307.60" xlink:href="#hd"/>
<use x="352.09" y="307.60" xlink:href="#nt0"/>
<path d="M357.59 307.60v21.00" class="stroke"/>
<use x="410.29" y="298.60" xlink:href="#hd"/>
<path d="M406.79 298.60v21.00" class="stroke"/>
<use x="431.89" y="307.60" xlink:href="#hd"/>
<use x="422.89" y="307.60" xlink:href="#nt0"/>
<path d="M428.39 307.60v21.00" class="stroke"/>
<use x="463.09" y="319.60" xlink:href="#hd"/>
<path d="M466.59 319.60v-21.00" class="stroke"/>
<use x="496.69" y="310.60" xlink:href="#r8"/>
<path class="fill"
	d="M506.09 328.90l67.30 7.00v-3.20l-67.30 -7.00"/>
<use x="509.89" y="301.60" xlink:href="#hd"/>
<path d="M506.39 301.60v26.30" class="stroke"/>
<use x="528.09" y="307.60" xlink:href="#hd"/>
<use x="519.09" y="307.60" xlink:href="#nt0"/>
<path d="M524.59 307.60v22.20" class="stroke"/>
<use x="540.49" y="310.60" xlink:href="#hd"/>
<path d="M536.99 310.60v20.40" class="stroke"/>
<use x="558.49" y="313.60" xlink:href="#hd"/>
<use x="549.49" y="313.60" xlink:href="#sh0"/>
<path d="M554.99 313.60v19.30" class="stroke"/>
<use x="576.49" y="316.60" xlink:href="#hd"/>
<use x="567.49" y="316.60" xlink:href="#nt0"/>
<path d="M572.99 316.60v18.20" class="stroke"/>
<use x="607.69" y="298.60" xlink:href="#hd"/>
<path d="M604.19 298.60v21.00" class="stroke"/>
<use x="629.29" y="301.60" xlink:href="#hd"/>
<path d="M625.79 301.60v21.00" class="stroke"/>
<use x="660.49" y="304.60" xlink:href="#hd"/>
<use x="651.49" y="304.60" xlink:href="#sh0"/>
<path d="M656.99 304.60v21.00" class="stroke"/>
<use x="694.09" y="301.60" xlink:href="#hd"/>
<path d="M690.59 301.60v21.00" class="stroke"/>
<use x="724.39" y="298.60" xlink:href="#hd"/>
<path d="M720.89 298.60v21.00" class="stroke"/>
<use x="754.79" y="319.60" xlink:href="#hd"/>
<path d="M758.29 319.60v-21.00" class="stroke"/>
<use x="798.49" y="310.60" xlink:href="#hd"/>
<path d="M801.99 310.60v-21.00" class="stroke"/>
<path class="fill"
	d="M812.69 321.10l49.10 6.60v-3.20l-49.10 -6.60"/>
<use x="816.49" y="298.60" xlink:href="#hd"/>
<path d="M812.99 298.60v21.50" class="stroke"/>
<use x="828.89" y="301.60" xlink:href="#hd"/>
<path d="M825.39 301.60v20.10" class="stroke"/>
<use x="846.89" y="304.60" xlink:href="#hd"/>
<use x="837.89" y="304.60" xlink:href="#sh0"/>
<path d="M843.39 304.60v19.50" class="stroke"/>
<use x="864.89" y="307.60" xlink:href="#hd"/>
<use x="855.89" y="307.60" xlink:href="#nt0"/>
<path d="M861.39 307.60v18.90" class="stroke"/>
</g>
</svg>
