<?xml version="1.0" standalone="no"?>
<!DOCTYPE svg PUBLIC "-//W3C//DTD SVG 1.1//EN"
	"http://www.w3.org/Graphics/SVG/1.1/DTD/svg11.dtd">
<svg xmlns="http://www.w3.org/2000/svg" version="1.1"
	xmlns:xlink="http://www.w3.org/1999/xlink"
	color="black"
	width="797.58px" height="268.80px">
<style type="text/css">
.fill {fill: currentColor}
.stroke {stroke: currentColor; fill: none}
text{white-space:pre; fill:currentColor}
</style>
<title>./ldmta-9-9-9-9-9-9-8-8-9-8-6-8-9-9-8-9.abc (1512) tune 1</title>
<!-- Creator: abcm2ps-8.14.15 -->
<!-- CreationDate: May 27, 2025 15:56 -->
<!-- CommandLine: ./ldmta-9-9-9-9-9-9-8-8-9-8-6-8-9-9-8-9.abc -O ./ldmta-9-9-9-9-9-9-8-8-9-8-6-8-9-9-8-9.svg -g -->
<rect width="100%" height="100%" fill="white"/>
<g stroke-width="0.70" transform="scale(0.800)">
<!-- title: 9-9-9-9-9-9-8-8-9-8-6-8-9-9-8-9 -->
</g>
<g stroke-width="0.70" transform="scale(0.800)" style="font:20.00px Times">
<text x="498.50" y="22.00" text-anchor="middle">9-9-9-9-9-9-8-8-9-8-6-8-9-9-8-9</text>
</g>
<g stroke-width="0.70" transform="scale(0.800)" style="font:20.00px Times">
<!-- subtitle: $1ldmta:::66:67:68:69:70:63:64:::58:43:60:69:70:63:72::$0 -->
</g>
<g stroke-width="0.70" transform="scale(0.800)" style="font:bold 12.00px Courier">
<text x="498.50" y="41.80" text-anchor="middle">ldmta:::66:67:68:69:70:63:64:::58:43:60:69:70:63:72::</text>
</g>
<g stroke-width="0.70" transform="scale(0.800)" style="font:bold 12.00px Courier">
<!-- subtitle: $1Perm. No.: 15122842560000$0 -->
<text x="498.50" y="60.80" text-anchor="middle">Perm. No.: 15122842560000</text>
</g>
<g stroke-width="0.70" transform="scale(0.560)" style="font:bold 12.00px Courier">
<defs>
<ellipse id="hd" rx="4.1" ry="2.9"
	transform="rotate(-20)" class="fill"/>
</defs>
<use x="124.14" y="121.29" xlink:href="#hd"/>
<path d="M127.64 121.29v-21.00" class="stroke"/>
<path class="fill"
	d="M127.64 100.29c0.6 5.6 9.6 9 5.6 18.4
	1.6 -6 -1.3 -11.6 -5.6 -12.8
"/>
</g>
<g stroke-width="0.70" transform="scale(0.800)" style="font:bold 15.00px Times">
<text x="96.00" y="87.00">= 140</text>
<path class="stroke" stroke-width="1"
	d="M37.80 185.00v-82.00"/>
<path class="fill"
	d="M32.80 100.00
	c10.5 1 12 -4.5 12 -3.5c0 1 -3.5 5.5 -8.5 5.5
	v84.00
	c5 0 8.5 4.5 8.5 5.5c0 1 -1.5 -4.5 -12 -3.5"/>
<path class="stroke" stroke-width="1"
	d="M189.30 127.00v-24.00"/>
<path class="stroke" stroke-width="1"
	d="M189.30 185.00v-58.00"/>
<path class="stroke" stroke-width="1"
	d="M287.40 127.00v-24.00"/>
<path class="stroke" stroke-width="1"
	d="M287.40 185.00v-58.00"/>
<path class="stroke" stroke-width="1"
	d="M387.50 127.00v-24.00"/>
<path class="stroke" stroke-width="1"
	d="M387.50 185.00v-58.00"/>
<path class="stroke" stroke-width="1"
	d="M499.00 127.00v-24.00"/>
<path class="stroke" stroke-width="1"
	d="M499.00 185.00v-58.00"/>
<path class="stroke" stroke-width="1"
	d="M602.50 127.00v-24.00"/>
<path class="stroke" stroke-width="1"
	d="M602.50 185.00v-58.00"/>
<path class="stroke" stroke-width="1"
	d="M720.60 127.00v-24.00"/>
<path class="stroke" stroke-width="1"
	d="M720.60 185.00v-58.00"/>
<path class="stroke" stroke-width="1"
	d="M841.40 127.00v-24.00"/>
<path class="stroke" stroke-width="1"
	d="M841.40 185.00v-58.00"/>
<path class="stroke" stroke-width="3"
	d="M957.70 127.00v-24.00"/>
<path class="stroke" stroke-width="1"
	d="M952.20 127.00v-24.00"/>
<defs>
<g id="rdots" class="fill">
	<circle cx="0" cy="-9" r="1.2"/>
	<circle cx="0" cy="-15" r="1.2"/>
</g>
</defs>
<use x="948.20" y="127.00" xlink:href="#rdots"/>
<path class="stroke" stroke-width="3"
	d="M957.70 185.00v-58.00"/>
<path class="stroke" stroke-width="1"
	d="M952.20 185.00v-58.00"/>
<use x="948.20" y="185.00" xlink:href="#rdots"/>
<path d="m37.80 127.00
	h921.40
	M37.80 121.00
	h921.40
	M37.80 115.00
	h921.40
	M37.80 109.00
	h921.40
	M37.80 103.00
	h921.40
	" class="stroke"/>
<path d="m37.80 185.00
	h921.40
	M37.80 179.00
	h921.40
	M37.80 173.00
	h921.40
	M37.80 167.00
	h921.40
	M37.80 161.00
	h921.40
	" class="stroke"/>
<defs>
<path id="utclef" class="fill" d="m-50 -90
	c-72 -41 -72 -158 52 -188
	150 -10 220 188 90 256
	-114 52 -275 0 -293 -136
	-15 -181 93 -229 220 -334
	88 -87 79 -133 62 -210
	-51 33 -94 105 -89 186
	17 267 36 374 49 574
	6 96 -19 134 -77 135
	-80 1 -126 -93 -61 -133
	85 -41 133 101 31 105
	23 17 92 37 90 -92
	-10 -223 -39 -342 -50 -617
	0 -90 0 -162 96 -232
	56 72 63 230 22 289
	-74 106 -257 168 -255 316
	9 153 148 185 252 133
	86 -65 29 -192 -80 -176
	-71 12 -105 67 -59 124"/>
<use id="tclef" transform="translate(0,6) scale(0.045)"
	xlink:href="#utclef"/>
</defs>
<use x="49.80" y="121.00" xlink:href="#tclef"/>
<g style="font:bold 16px serif"
	transform="translate(68.30,126.50) scale(1.2,1)">
	<text text-anchor="middle">4</text>
	<text y="-12" text-anchor="middle">3</text>
</g>
<defs>
<path id="hl" class="stroke" d="m-6 0h12"/>
</defs>
<use x="86.30" y="97.00" xlink:href="#hl"/>
<use x="86.30" y="97.00" xlink:href="#hd"/>
<path d="M82.80 97.00v21.00" class="stroke"/>
<use x="127.00" y="106.00" xlink:href="#hd"/>
<defs>
<path id="unat" class="fill" d="
	m96 -750
	h-32
	v716
	l32 -8
	182 -54
	v282
	h32
	v-706
	l-34 10
	-180 50
	v-290
	m0 592
	v-190
	l182 -52
	v188"/>
<use id="nt0" transform="translate(-3,5) scale(0.018)"
	xlink:href="#unat"/>
</defs>
<use x="118.00" y="106.00" xlink:href="#nt0"/>
<path d="M123.50 106.00v21.00" class="stroke"/>
<path class="fill"
	d="M152.30 128.90l19.60 -3.80v-3.20l-19.60 3.80"/>
<use x="156.20" y="109.00" xlink:href="#hd"/>
<path d="M152.70 109.00v18.80" class="stroke"/>
<use x="175.10" y="103.00" xlink:href="#hd"/>
<path d="M171.60 103.00v21.20" class="stroke"/>
<use x="208.80" y="106.00" xlink:href="#hd"/>
<use x="199.80" y="106.00" xlink:href="#nt0"/>
<path d="M205.30 106.00v21.00" class="stroke"/>
<use x="238.00" y="118.00" xlink:href="#hd"/>
<path d="M241.50 118.00v-21.00" class="stroke"/>
<use x="267.40" y="97.00" xlink:href="#hl"/>
<use x="267.40" y="97.00" xlink:href="#hd"/>
<path d="M263.90 97.00v21.00" class="stroke"/>
<use x="307.90" y="127.00" xlink:href="#hd"/>
<use x="298.90" y="127.00" xlink:href="#nt0"/>
<path d="M311.40 127.00v-21.00" class="stroke"/>
<use x="337.30" y="109.00" xlink:href="#hd"/>
<path d="M333.80 109.00v21.00" class="stroke"/>
<use x="367.40" y="115.00" xlink:href="#hd"/>
<use x="358.40" y="115.00" xlink:href="#nt0"/>
<path d="M363.90 115.00v21.00" class="stroke"/>
<path class="fill"
	d="M397.60 134.50l59.20 0.00v-3.20l-59.20 -0.00"/>
<use x="401.50" y="112.00" xlink:href="#hd"/>
<path d="M398.00 112.00v21.50" class="stroke"/>
<use x="421.30" y="115.00" xlink:href="#hd"/>
<use x="412.30" y="115.00" xlink:href="#nt0"/>
<path d="M417.80 115.00v18.50" class="stroke"/>
<use x="440.20" y="112.00" xlink:href="#hd"/>
<path d="M436.70 112.00v21.50" class="stroke"/>
<use x="460.00" y="115.00" xlink:href="#hd"/>
<use x="451.00" y="115.00" xlink:href="#nt0"/>
<path d="M456.50 115.00v18.50" class="stroke"/>
<use x="478.90" y="118.00" xlink:href="#hd"/>
<path d="M482.40 118.00v-21.00" class="stroke"/>
<use x="513.00" y="109.00" xlink:href="#hd"/>
<path d="M509.50 109.00v21.00" class="stroke"/>
<use x="543.00" y="115.00" xlink:href="#hd"/>
<use x="534.00" y="115.00" xlink:href="#nt0"/>
<path d="M539.50 115.00v21.00" class="stroke"/>
<path class="fill"
	d="M572.50 97.30l19.60 2.40v3.20l-19.60 -2.40"/>
<use x="569.40" y="118.00" xlink:href="#hd"/>
<path d="M572.90 118.00v-19.60" class="stroke"/>
<use x="588.30" y="121.00" xlink:href="#hd"/>
<path d="M591.80 121.00v-20.40" class="stroke"/>
<path class="fill"
	d="M618.20 128.10l58.30 6.90v-3.20l-58.30 -6.90"/>
<use x="622.00" y="106.00" xlink:href="#hd"/>
<use x="613.00" y="106.00" xlink:href="#nt0"/>
<path d="M618.50 106.00v21.10" class="stroke"/>
<use x="640.90" y="109.00" xlink:href="#hd"/>
<path d="M637.40 109.00v20.30" class="stroke"/>
<use x="659.80" y="112.00" xlink:href="#hd"/>
<path d="M656.30 112.00v19.60" class="stroke"/>
<use x="679.60" y="115.00" xlink:href="#hd"/>
<use x="670.60" y="115.00" xlink:href="#nt0"/>
<path d="M676.10 115.00v19.00" class="stroke"/>
<use x="700.50" y="112.00" xlink:href="#hd"/>
<path d="M697.00 112.00v21.00" class="stroke"/>
<use x="740.10" y="121.00" xlink:href="#hd"/>
<path d="M743.60 121.00v-21.00" class="stroke"/>
<path class="fill"
	d="M765.60 137.20l58.30 0.00v-3.20l-58.30 -0.00"/>
<use x="769.50" y="118.00" xlink:href="#hd"/>
<path d="M766.00 118.00v18.20" class="stroke"/>
<use x="788.40" y="109.00" xlink:href="#hd"/>
<path d="M784.90 109.00v27.20" class="stroke"/>
<use x="807.30" y="112.00" xlink:href="#hd"/>
<path d="M803.80 112.00v24.20" class="stroke"/>
<use x="827.10" y="115.00" xlink:href="#hd"/>
<use x="818.10" y="115.00" xlink:href="#nt0"/>
<path d="M823.60 115.00v21.20" class="stroke"/>
<defs>
<path id="Hd" class="fill" d="m3 -1.6
	c-1 -1.8 -7 1.4 -6 3.2
	1 1.8 7 -1.4 6 -3.2
	m0.5 -0.3
	c2 3.8 -5 7.6 -7 3.8
	-2 -3.8 5 -7.6 7 -3.8"/>
</defs>
<use x="855.40" y="112.00" xlink:href="#Hd"/>
<circle class="fill" cx="864.10" cy="112.00" r="1.2"/>
<path d="M851.90 112.00v21.00" class="stroke"/>
<defs>
<path id="ubclef" class="fill" d="m-200 -87
	c124 -35 222 -78 254 -236
	43 -228 -167 -246 -192 -103
	59 -80 157 22 92 78
	-62 47 -115 -22 -106 -88
	21 -141 270 -136 274 52
	-1 175 -106 264 -322 297
	m357 -250
	c0 -36 51 -34 51 0
	0 37 -51 36 -51 0
	m-2 -129
	c0 -36 51 -34 51 0
	0 38 -51 37 -51 0"/>
<use id="bclef" transform="translate(0,18) scale(0.045)"
	xlink:href="#ubclef"/>
</defs>
<use x="49.80" y="167.00" xlink:href="#bclef"/>
<g style="font:bold 16px serif"
	transform="translate(68.30,184.50) scale(1.2,1)">
	<text text-anchor="middle">4</text>
	<text y="-12" text-anchor="middle">3</text>
</g>
<path class="fill"
	d="M89.50 160.70l20.50 -2.40v3.20l-20.50 2.40"/>
<use x="86.30" y="182.00" xlink:href="#hd"/>
<path d="M89.80 182.00v-20.30" class="stroke"/>
<use x="106.10" y="179.00" xlink:href="#hd"/>
<use x="97.10" y="179.00" xlink:href="#nt0"/>
<path d="M109.60 179.00v-19.70" class="stroke"/>
<use x="127.00" y="176.00" xlink:href="#hd"/>
<path d="M130.50 176.00v-21.00" class="stroke"/>
<use x="156.20" y="173.00" xlink:href="#hd"/>
<path d="M159.70 173.00v-21.00" class="stroke"/>
<use x="208.80" y="176.00" xlink:href="#hd"/>
<path d="M212.30 176.00v-21.00" class="stroke"/>
<defs>
<path id="r4" class="fill" d="m-1 -8.5
	l3.6 5.1 -2.1 5.2 2.2 4.3
	c-2.6 -2.3 -5.1 0 -2.4 2.6
	-4.8 -3 -1.5 -6.9 1.4 -4.1
	l-3.1 -4.5 1.9 -5.1 -1.5 -3.5"/>
</defs>
<use x="238.00" y="173.00" xlink:href="#r4"/>
<use x="267.40" y="176.00" xlink:href="#hd"/>
<path d="M270.90 176.00v-21.00" class="stroke"/>
<use x="307.90" y="179.00" xlink:href="#Hd"/>
<use x="297.90" y="179.00" xlink:href="#nt0"/>
<path d="M311.40 179.00v-21.00" class="stroke"/>
<use x="367.40" y="161.00" xlink:href="#hd"/>
<path d="M363.90 161.00v21.00" class="stroke"/>
<use x="401.50" y="161.00" xlink:href="#Hd"/>
<path d="M398.00 161.00v21.00" class="stroke"/>
<use x="478.90" y="173.00" xlink:href="#r4"/>
<use x="513.00" y="164.00" xlink:href="#Hd"/>
<path d="M509.50 164.00v21.00" class="stroke"/>
<use x="569.40" y="185.00" xlink:href="#hd"/>
<path d="M572.90 185.00v-21.00" class="stroke"/>
<use x="622.00" y="176.00" xlink:href="#hd"/>
<path d="M625.50 176.00v-21.00" class="stroke"/>
<use x="659.80" y="173.00" xlink:href="#r4"/>
<use x="700.50" y="170.00" xlink:href="#hd"/>
<use x="691.50" y="170.00" xlink:href="#nt0"/>
<path d="M697.00 170.00v21.00" class="stroke"/>
<use x="740.10" y="170.00" xlink:href="#hd"/>
<use x="731.10" y="170.00" xlink:href="#nt0"/>
<path d="M736.60 170.00v21.00" class="stroke"/>
<use x="769.50" y="167.00" xlink:href="#hd"/>
<path d="M766.00 167.00v21.00" class="stroke"/>
<use x="807.30" y="164.00" xlink:href="#hd"/>
<path d="M803.80 164.00v21.00" class="stroke"/>
<use x="855.40" y="176.00" xlink:href="#hd"/>
<path d="M858.90 176.00v-21.00" class="stroke"/>
<use x="884.50" y="173.00" xlink:href="#r4"/>
<path class="fill"
	d="M914.00 155.30l20.50 2.40v3.20l-20.50 -2.40"/>
<use x="910.80" y="176.00" xlink:href="#hd"/>
<path d="M914.30 176.00v-19.70" class="stroke"/>
<use x="930.70" y="179.00" xlink:href="#hd"/>
<use x="921.70" y="179.00" xlink:href="#nt0"/>
<path d="M934.20 179.00v-20.30" class="stroke"/>
</g>
<g stroke-width="0.70" transform="scale(0.800)" style="font:bold 15.00px Times">
<path class="stroke" stroke-width="1"
	d="M37.80 313.00v-82.00"/>
<path class="fill"
	d="M32.80 228.00
	c10.5 1 12 -4.5 12 -3.5c0 1 -3.5 5.5 -8.5 5.5
	v84.00
	c5 0 8.5 4.5 8.5 5.5c0 1 -1.5 -4.5 -12 -3.5"/>
<use x="76.80" y="255.00" xlink:href="#rdots"/>
<path class="stroke" stroke-width="1"
	d="M71.80 255.00v-24.00"/>
<path class="stroke" stroke-width="3"
	d="M67.30 255.00v-24.00"/>
<use x="76.80" y="313.00" xlink:href="#rdots"/>
<path class="stroke" stroke-width="1"
	d="M71.80 313.00v-58.00"/>
<path class="stroke" stroke-width="3"
	d="M67.30 313.00v-58.00"/>
<path class="stroke" stroke-width="1"
	d="M195.90 255.00v-24.00"/>
<path class="stroke" stroke-width="1"
	d="M195.90 313.00v-58.00"/>
<path class="stroke" stroke-width="1"
	d="M307.70 255.00v-24.00"/>
<path class="stroke" stroke-width="1"
	d="M307.70 313.00v-58.00"/>
<path class="stroke" stroke-width="1"
	d="M411.50 255.00v-24.00"/>
<path class="stroke" stroke-width="1"
	d="M411.50 313.00v-58.00"/>
<path class="stroke" stroke-width="1"
	d="M514.70 255.00v-24.00"/>
<path class="stroke" stroke-width="1"
	d="M514.70 313.00v-58.00"/>
<path class="stroke" stroke-width="1"
	d="M622.90 255.00v-24.00"/>
<path class="stroke" stroke-width="1"
	d="M622.90 313.00v-58.00"/>
<path class="stroke" stroke-width="1"
	d="M725.20 255.00v-24.00"/>
<path class="stroke" stroke-width="1"
	d="M725.20 313.00v-58.00"/>
<path class="stroke" stroke-width="1"
	d="M847.20 255.00v-24.00"/>
<path class="stroke" stroke-width="1"
	d="M847.20 313.00v-58.00"/>
<path class="stroke" stroke-width="3"
	d="M957.70 255.00v-24.00"/>
<path class="stroke" stroke-width="1"
	d="M952.20 255.00v-24.00"/>
<use x="948.20" y="255.00" xlink:href="#rdots"/>
<path class="stroke" stroke-width="3"
	d="M957.70 313.00v-58.00"/>
<path class="stroke" stroke-width="1"
	d="M952.20 313.00v-58.00"/>
<use x="948.20" y="313.00" xlink:href="#rdots"/>
<path d="m37.80 255.00
	h921.40
	M37.80 249.00
	h921.40
	M37.80 243.00
	h921.40
	M37.80 237.00
	h921.40
	M37.80 231.00
	h921.40
	" class="stroke"/>
<path d="m37.80 313.00
	h921.40
	M37.80 307.00
	h921.40
	M37.80 301.00
	h921.40
	M37.80 295.00
	h921.40
	M37.80 289.00
	h921.40
	" class="stroke"/>
<text style="font:italic 12px serif"
	x="918.40" y="330.30" text-anchor="middle">3</text>
<use x="49.80" y="249.00" xlink:href="#tclef"/>
<path class="fill"
	d="M93.50 224.70l20.50 -2.40v3.20l-20.50 2.40"/>
<use x="90.30" y="246.00" xlink:href="#hd"/>
<path d="M93.80 246.00v-20.30" class="stroke"/>
<use x="110.10" y="243.00" xlink:href="#hd"/>
<use x="101.10" y="243.00" xlink:href="#nt0"/>
<path d="M113.60 243.00v-19.70" class="stroke"/>
<use x="131.90" y="240.00" xlink:href="#hd"/>
<defs>
<path id="usharp" class="fill" d="
	m136 -702
	v890
	h32
	v-890
	m128 840
	h32
	v-888
	h-32
	m-232 286
	v116
	l338 -96
	v-116
	m-338 442
	v116
	l338 -98
	v-114"/>
<use id="sh0" transform="translate(-4,5) scale(0.018)"
	xlink:href="#usharp"/>
</defs>
<use x="122.90" y="240.00" xlink:href="#sh0"/>
<path d="M128.40 240.00v21.00" class="stroke"/>
<path class="fill"
	d="M158.00 257.70l20.50 -2.40v-3.20l-20.50 2.40"/>
<use x="161.80" y="237.00" xlink:href="#hd"/>
<path d="M158.30 237.00v19.70" class="stroke"/>
<use x="181.60" y="234.00" xlink:href="#hd"/>
<use x="172.60" y="234.00" xlink:href="#nt0"/>
<path d="M178.10 234.00v20.30" class="stroke"/>
<path class="fill"
	d="M206.00 252.00l58.00 0.00v-3.20l-58.00 -0.00"/>
<use x="209.90" y="231.00" xlink:href="#hd"/>
<path d="M206.40 231.00v20.00" class="stroke"/>
<use x="229.70" y="234.00" xlink:href="#hd"/>
<use x="220.70" y="234.00" xlink:href="#nt0"/>
<path d="M226.20 234.00v17.00" class="stroke"/>
<use x="248.40" y="231.00" xlink:href="#hd"/>
<path d="M244.90 231.00v20.00" class="stroke"/>
<use x="267.20" y="228.00" xlink:href="#hd"/>
<path d="M263.70 228.00v23.00" class="stroke"/>
<use x="287.80" y="225.00" xlink:href="#hl"/>
<use x="287.80" y="225.00" xlink:href="#hd"/>
<path d="M284.30 225.00v21.00" class="stroke"/>
<path class="fill"
	d="M317.40 247.90l20.50 -3.90v-3.20l-20.50 3.90"/>
<use x="321.20" y="228.00" xlink:href="#hd"/>
<path d="M317.70 228.00v18.90" class="stroke"/>
<use x="341.10" y="225.00" xlink:href="#hl"/>
<use x="341.10" y="222.00" xlink:href="#hd"/>
<defs>
<path id="uflat" class="fill" d="
	m100 -746
	h32
	v734
	l-32 4
	m32 -332
	c46 -72 152 -90 208 -20
	100 110 -120 326 -208 348
	m0 -28
	c54 0 200 -206 130 -290
	-50 -60 -130 -4 -130 34"/>
<use id="ft0" transform="translate(-3.5,3.5) scale(0.018)"
	xlink:href="#uflat"/>
</defs>
<use x="332.10" y="222.00" xlink:href="#ft0"/>
<path d="M337.60 222.00v21.10" class="stroke"/>
<use x="361.80" y="246.00" xlink:href="#hd"/>
<path d="M365.30 246.00v-21.00" class="stroke"/>
<use x="391.60" y="240.00" xlink:href="#hd"/>
<use x="382.60" y="240.00" xlink:href="#sh0"/>
<path d="M388.10 240.00v21.00" class="stroke"/>
<use x="425.50" y="237.00" xlink:href="#hd"/>
<path d="M422.00 237.00v21.00" class="stroke"/>
<path class="fill"
	d="M451.60 254.70l19.40 -2.40v-3.20l-19.40 2.40"/>
<use x="455.40" y="234.00" xlink:href="#hd"/>
<use x="446.40" y="234.00" xlink:href="#nt0"/>
<path d="M451.90 234.00v19.60" class="stroke"/>
<use x="474.20" y="231.00" xlink:href="#hd"/>
<path d="M470.70 231.00v20.40" class="stroke"/>
<use x="494.80" y="237.00" xlink:href="#hd"/>
<path d="M491.30 237.00v21.00" class="stroke"/>
<path class="fill"
	d="M530.40 253.30l20.50 -4.90v-3.20l-20.50 4.90"/>
<use x="534.20" y="234.00" xlink:href="#hd"/>
<use x="525.20" y="234.00" xlink:href="#nt0"/>
<path d="M530.70 234.00v18.20" class="stroke"/>
<use x="554.10" y="225.00" xlink:href="#hl"/>
<use x="554.10" y="225.00" xlink:href="#hd"/>
<use x="545.10" y="225.00" xlink:href="#nt0"/>
<path d="M550.60 225.00v22.50" class="stroke"/>
<use x="573.90" y="255.00" xlink:href="#hd"/>
<use x="564.90" y="255.00" xlink:href="#nt0"/>
<path d="M577.40 255.00v-21.00" class="stroke"/>
<use x="603.00" y="237.00" xlink:href="#hd"/>
<path d="M599.50 237.00v21.00" class="stroke"/>
<path class="fill"
	d="M633.10 259.90l20.50 -3.90v-3.20l-20.50 3.90"/>
<use x="636.90" y="240.00" xlink:href="#hd"/>
<path d="M633.40 240.00v18.90" class="stroke"/>
<use x="656.70" y="234.00" xlink:href="#hd"/>
<use x="647.70" y="234.00" xlink:href="#nt0"/>
<path d="M653.20 234.00v21.10" class="stroke"/>
<use x="676.60" y="255.00" xlink:href="#hd"/>
<use x="667.60" y="255.00" xlink:href="#nt0"/>
<path d="M680.10 255.00v-21.00" class="stroke"/>
<use x="705.30" y="246.00" xlink:href="#hd"/>
<path d="M708.80 246.00v-21.00" class="stroke"/>
<use x="744.70" y="255.00" xlink:href="#hd"/>
<use x="735.70" y="255.00" xlink:href="#nt0"/>
<path d="M748.20 255.00v-21.00" class="stroke"/>
<path class="fill"
	d="M777.80 223.80l59.10 0.00v3.20l-59.10 -0.00"/>
<use x="774.60" y="252.00" xlink:href="#hd"/>
<use x="765.60" y="252.00" xlink:href="#sh0"/>
<path d="M778.10 252.00v-27.20" class="stroke"/>
<use x="794.50" y="243.00" xlink:href="#hd"/>
<use x="785.50" y="243.00" xlink:href="#nt0"/>
<path d="M798.00 243.00v-18.20" class="stroke"/>
<use x="813.20" y="246.00" xlink:href="#hd"/>
<path d="M816.70 246.00v-21.20" class="stroke"/>
<use x="833.00" y="249.00" xlink:href="#hd"/>
<use x="824.00" y="249.00" xlink:href="#sh0"/>
<path d="M836.50 249.00v-24.20" class="stroke"/>
<use x="861.20" y="246.00" xlink:href="#Hd"/>
<circle class="fill" cx="869.90" cy="246.00" r="1.2"/>
<path d="M864.70 246.00v-21.00" class="stroke"/>
<use x="49.80" y="295.00" xlink:href="#bclef"/>
<use x="90.30" y="289.00" xlink:href="#hd"/>
<path d="M86.80 289.00v21.00" class="stroke"/>
<use x="131.90" y="298.00" xlink:href="#hd"/>
<use x="122.90" y="298.00" xlink:href="#nt0"/>
<path d="M128.40 298.00v21.00" class="stroke"/>
<use x="161.80" y="304.00" xlink:href="#hd"/>
<use x="152.80" y="304.00" xlink:href="#sh0"/>
<path d="M165.30 304.00v-21.00" class="stroke"/>
<use x="209.90" y="301.00" xlink:href="#Hd"/>
<path d="M213.40 301.00v-21.00" class="stroke"/>
<use x="287.80" y="295.00" xlink:href="#hd"/>
<path d="M284.30 295.00v21.00" class="stroke"/>
<use x="321.20" y="292.00" xlink:href="#hd"/>
<path d="M317.70 292.00v21.00" class="stroke"/>
<use x="361.80" y="289.00" xlink:href="#hd"/>
<path d="M358.30 289.00v21.00" class="stroke"/>
<use x="391.60" y="310.00" xlink:href="#hd"/>
<path d="M395.10 310.00v-21.00" class="stroke"/>
<use x="425.50" y="301.00" xlink:href="#Hd"/>
<path d="M429.00 301.00v-21.00" class="stroke"/>
<use x="494.80" y="301.00" xlink:href="#hd"/>
<path d="M498.30 301.00v-21.00" class="stroke"/>
<use x="534.20" y="304.00" xlink:href="#Hd"/>
<path d="M537.70 304.00v-21.00" class="stroke"/>
<use x="603.00" y="307.00" xlink:href="#hd"/>
<use x="594.00" y="307.00" xlink:href="#nt0"/>
<path d="M606.50 307.00v-21.00" class="stroke"/>
<use x="636.90" y="310.00" xlink:href="#Hd"/>
<path d="M640.40 310.00v-21.00" class="stroke"/>
<use x="705.30" y="304.00" xlink:href="#hd"/>
<path d="M708.80 304.00v-21.00" class="stroke"/>
<use x="744.70" y="304.00" xlink:href="#hd"/>
<path d="M748.20 304.00v-21.00" class="stroke"/>
<use x="774.60" y="301.00" xlink:href="#hd"/>
<path d="M778.10 301.00v-21.00" class="stroke"/>
<use x="813.20" y="298.00" xlink:href="#hd"/>
<use x="804.20" y="298.00" xlink:href="#nt0"/>
<path d="M809.70 298.00v21.00" class="stroke"/>
<use x="861.20" y="310.00" xlink:href="#Hd"/>
<path d="M864.70 310.00v-21.00" class="stroke"/>
<path class="fill"
	d="M898.80 318.30l36.70 -4.60v-3.20l-36.70 4.60"/>
<use x="902.70" y="298.00" xlink:href="#hd"/>
<use x="893.70" y="298.00" xlink:href="#nt0"/>
<path d="M899.20 298.00v19.30" class="stroke"/>
<use x="920.70" y="295.00" xlink:href="#hd"/>
<use x="911.70" y="295.00" xlink:href="#sh0"/>
<path d="M917.20 295.00v20.00" class="stroke"/>
<use x="938.70" y="292.00" xlink:href="#hd"/>
<use x="929.70" y="292.00" xlink:href="#sh0"/>
<path d="M935.20 292.00v20.70" class="stroke"/>
</g>
</svg>
